P2
16 4
20
1 2 1 10 1 2 1 10 1 2 1 10 1 2 1 10
2 1 20 1 1 2 1 10 1 2 1 10 1 2 1 10
1 3 2 14 1 2 1 10 1 2 1 10 1 2 1 10
12 14 1 4 1 2 1 10 1 2 1 10 1 2 1 10